<?xml version="1.0" encoding="utf-8"?>
<!-- Generator: Adobe Illustrator 27.0.0, SVG Export Plug-In . SVG Version: 6.00 Build 0)  -->
<svg version="1.1" id="Layer_1" xmlns="http://www.w3.org/2000/svg" xmlns:xlink="http://www.w3.org/1999/xlink" x="0px" y="0px"
	 viewBox="0 0 682 614" style="enable-background:new 0 0 682 614;" xml:space="preserve">
<style type="text/css">
	.st0{display:none;}
	.st1{display:inline;}
	.st2{display:inline;clip-path:url(#SVGID_00000052814495589280342340000010163297408872806277_);}
	.st3{fill:url(#SVGID_00000104680718871309854210000013630508255312632220_);}
	.st4{fill-rule:evenodd;clip-rule:evenodd;fill:url(#SVGID_00000177478696349065816370000002770110966463779243_);}
	.st5{fill-rule:evenodd;clip-rule:evenodd;fill:url(#SVGID_00000171695720677434409290000012354205447381663645_);}
	.st6{fill-rule:evenodd;clip-rule:evenodd;fill:url(#SVGID_00000102526001873988898720000015916530654987541406_);}
	.st7{fill-rule:evenodd;clip-rule:evenodd;fill:#31165F;}
	.st8{fill-rule:evenodd;clip-rule:evenodd;fill:url(#SVGID_00000150796466691133841070000004075672397372556964_);}
	.st9{fill:#53345F;}
	.st10{fill-rule:evenodd;clip-rule:evenodd;fill:#53345F;}
	.st11{fill-rule:evenodd;clip-rule:evenodd;fill:url(#SVGID_00000082357881024273155050000010876671685535126421_);}
	
		.st12{opacity:0.5;fill-rule:evenodd;clip-rule:evenodd;fill:url(#SVGID_00000049183155496184170830000018438786648547646885_);enable-background:new    ;}
	
		.st13{opacity:0.5;fill-rule:evenodd;clip-rule:evenodd;fill:url(#SVGID_00000052806593074468609710000018384544719698320531_);enable-background:new    ;}
	.st14{fill-rule:evenodd;clip-rule:evenodd;fill:url(#SVGID_00000100343835044663242570000015986628899463514042_);}
	.st15{fill-rule:evenodd;clip-rule:evenodd;fill:#A6345F;}
	.st16{fill-rule:evenodd;clip-rule:evenodd;fill:url(#SVGID_00000133530870431109628010000002100702876957793719_);}
	.st17{fill-rule:evenodd;clip-rule:evenodd;fill:url(#SVGID_00000009558612416127460220000007826253560254186906_);}
	.st18{opacity:0.5;fill-rule:evenodd;clip-rule:evenodd;fill:#31165F;enable-background:new    ;}
	.st19{fill:#FFFFFF;}
	
		.st20{opacity:0.5;fill-rule:evenodd;clip-rule:evenodd;fill:url(#SVGID_00000054981831044434739060000000307783395689122728_);enable-background:new    ;}
	.st21{fill-rule:evenodd;clip-rule:evenodd;fill:url(#SVGID_00000164482934838282820680000005205359265572957613_);}
	.st22{fill-rule:evenodd;clip-rule:evenodd;fill:url(#SVGID_00000078040252638431218340000012034845520703972766_);}
	.st23{fill-rule:evenodd;clip-rule:evenodd;fill:url(#SVGID_00000154419554043707641550000011907177925079461811_);}
	.st24{fill-rule:evenodd;clip-rule:evenodd;fill:url(#SVGID_00000114059586332692145000000003213267723547945114_);}
	.st25{fill:#31165F;}
	.st26{fill-rule:evenodd;clip-rule:evenodd;fill:url(#SVGID_00000075871200747360586520000009751390904356920499_);}
	.st27{fill-rule:evenodd;clip-rule:evenodd;fill:url(#SVGID_00000067954510243252970500000011126179838286375045_);}
	.st28{fill-rule:evenodd;clip-rule:evenodd;fill:url(#SVGID_00000181785960374596755350000008443472586279155870_);}
	.st29{fill-rule:evenodd;clip-rule:evenodd;fill:url(#SVGID_00000034085586245169783930000012551467053685849498_);}
	.st30{fill-rule:evenodd;clip-rule:evenodd;fill:url(#SVGID_00000002358660681434534950000016922913681792644251_);}
	.st31{fill-rule:evenodd;clip-rule:evenodd;fill:url(#SVGID_00000142169848486488787020000013621681777397216937_);}
	.st32{fill-rule:evenodd;clip-rule:evenodd;fill:url(#SVGID_00000078010683706639596930000006073999683934916994_);}
	.st33{fill-rule:evenodd;clip-rule:evenodd;fill:url(#SVGID_00000036963150576172927770000001649801850632977045_);}
	.st34{fill-rule:evenodd;clip-rule:evenodd;fill:#6F2561;}
	.st35{fill-rule:evenodd;clip-rule:evenodd;fill:url(#SVGID_00000144315624101988892720000012202839416460310201_);}
	.st36{fill-rule:evenodd;clip-rule:evenodd;fill:#FF4C61;}
	.st37{fill-rule:evenodd;clip-rule:evenodd;fill:url(#SVGID_00000043431400469341742820000017461894319833986978_);}
	.st38{fill-rule:evenodd;clip-rule:evenodd;fill:url(#SVGID_00000034068544557804409810000002611526039621605052_);}
	.st39{opacity:0.5;}
	.st40{fill-rule:evenodd;clip-rule:evenodd;fill:#FFFFFF;}
	.st41{opacity:0.36;}
	.st42{fill-rule:evenodd;clip-rule:evenodd;fill:url(#SVGID_00000039131895365528582700000003656206151837558934_);}
	.st43{fill-rule:evenodd;clip-rule:evenodd;fill:url(#SVGID_00000160191611372399588070000000340337955430334094_);}
	.st44{fill:url(#SVGID_00000116949004946904646850000007548459148426290343_);}
	.st45{fill:url(#SVGID_00000131343869289987995690000008025880165214938539_);}
	.st46{fill:url(#SVGID_00000143617367116936239230000006435792853748784536_);}
	.st47{fill:url(#SVGID_00000128446991744521155460000006478837128216414113_);}
	.st48{fill:url(#SVGID_00000077288551105001569480000004361279699105520781_);}
	.st49{fill:url(#SVGID_00000164489197958675689620000005424137900705074102_);}
	.st50{fill:url(#SVGID_00000150101397665485984510000004242630236223310743_);}
</style>
<g class="st0">
	<defs>
		
			<rect id="SVGID_1_" x="575" y="9.6" transform="matrix(0.4741 -0.8805 0.8805 0.4741 239.9872 574.8541)" width="52.4" height="153.9"/>
	</defs>
	<clipPath id="SVGID_00000178190125988625417730000017010208840476952216_" class="st1">
		<use xlink:href="#SVGID_1_"  style="overflow:visible;"/>
	</clipPath>
	<g style="display:inline;clip-path:url(#SVGID_00000178190125988625417730000017010208840476952216_);">
		
			<linearGradient id="SVGID_00000089571739493561820480000010511087318093900723_" gradientUnits="userSpaceOnUse" x1="668.8079" y1="492.4561" x2="629.3828" y2="513.6822" gradientTransform="matrix(1 0 0 -1 -4.093293e-05 616)">
			<stop  offset="0" style="stop-color:#000000;stop-opacity:0"/>
			<stop  offset="1" style="stop-color:#106D90"/>
		</linearGradient>
		<path style="fill:url(#SVGID_00000089571739493561820480000010511087318093900723_);" d="M624.8,111.2l39.8,20l7.3-16.9
			l-37.4-20.6C634.5,93.7,626.5,106,624.8,111.2z"/>
		
			<linearGradient id="SVGID_00000143596625976759073380000001060030310969146521_" gradientUnits="userSpaceOnUse" x1="644.6575" y1="528.5695" x2="618.2618" y2="542.7806" gradientTransform="matrix(1 0 0 -1 -4.093293e-05 616)">
			<stop  offset="0" style="stop-color:#A43440"/>
			<stop  offset="1" style="stop-color:#C73634"/>
		</linearGradient>
		<path style="fill-rule:evenodd;clip-rule:evenodd;fill:url(#SVGID_00000143596625976759073380000001060030310969146521_);" d="
			M618.1,76.4l2.4-7.4c0,0,13.1,5.6,22.6,21.3l-0.3,0.6l-18.4-10.6l-0.8,1.3L618.1,76.4z"/>
		
			<linearGradient id="SVGID_00000179633906647564308370000008690147634761740966_" gradientUnits="userSpaceOnUse" x1="625.1498" y1="492.3507" x2="598.7543" y2="506.5625" gradientTransform="matrix(1 0 0 -1 -4.093293e-05 616)">
			<stop  offset="0" style="stop-color:#A43440"/>
			<stop  offset="1" style="stop-color:#C73634"/>
		</linearGradient>
		<path style="fill-rule:evenodd;clip-rule:evenodd;fill:url(#SVGID_00000179633906647564308370000008690147634761740966_);" d="
			M601.5,107.4l-5,6.3c0,0,11.9,7.8,30.2,7.1l0.3-0.6l-18.9-9.5l0.7-1.4L601.5,107.4z"/>
		
			<radialGradient id="SVGID_00000101798208408242372600000010471843489012866967_" cx="-615.3962" cy="837.3591" r="1" gradientTransform="matrix(16.1478 -29.9923 -54.1267 -29.1418 55825.1055 6006.585)" gradientUnits="userSpaceOnUse">
			<stop  offset="0" style="stop-color:#F4BAB3"/>
			<stop  offset="0.77" style="stop-color:#8D6FC7"/>
			<stop  offset="0.96" style="stop-color:#B695E5"/>
		</radialGradient>
		<path style="fill-rule:evenodd;clip-rule:evenodd;fill:url(#SVGID_00000101798208408242372600000010471843489012866967_);" d="
			M537.4,52.9c-4.7,8.8,8.8,33.8,28.8,43.2c20.1,9.4,53.5,15.7,53.5,15.7l6.2-11.2l5.9-11.3c0,0-23.7-24.4-42.6-36
			C570.4,41.7,542.1,44.2,537.4,52.9z"/>
		<path class="st7" d="M619.7,111.8c0,0,5.8-13.4,12.1-22.5C631.8,89.3,626.3,102.5,619.7,111.8z"/>
		
			<radialGradient id="SVGID_00000155838951367043839800000012749270948154604692_" cx="-608.3132" cy="767.9218" r="1" gradientTransform="matrix(4.3405 -8.0618 -7.1924 -3.8724 8699.4102 -1878.0444)" gradientUnits="userSpaceOnUse">
			<stop  offset="2.000000e-02" style="stop-color:#AB5E75"/>
			<stop  offset="0.25" style="stop-color:#9F577B"/>
			<stop  offset="0.67" style="stop-color:#7F458C"/>
			<stop  offset="0.99" style="stop-color:#61349C"/>
		</radialGradient>
		<path style="fill-rule:evenodd;clip-rule:evenodd;fill:url(#SVGID_00000155838951367043839800000012749270948154604692_);" d="
			M539.8,69.5c0,0,2.8-14.5,14.1-23.7c0,0-13.1,0.8-16.5,7.2C534.2,58.6,539.8,69.5,539.8,69.5z"/>
		<path class="st9" d="M554,45.9c-10.6,8.5-14,23.5-14,23.6l-0.3-0.1c0-0.2,3.4-15.3,14.1-23.8L554,45.9z"/>
		<path class="st10" d="M536.5,56.3l3.9-6.4C540.3,49.9,536.2,51.9,536.5,56.3z"/>
		
			<linearGradient id="SVGID_00000064336309290348695710000010927135900399713464_" gradientUnits="userSpaceOnUse" x1="537.6368" y1="562.6663" x2="534.3394" y2="564.4414" gradientTransform="matrix(1 0 0 -1 -4.093293e-05 616)">
			<stop  offset="0" style="stop-color:#FFFF18"/>
			<stop  offset="1" style="stop-color:#FF7400"/>
		</linearGradient>
		<path style="fill-rule:evenodd;clip-rule:evenodd;fill:url(#SVGID_00000064336309290348695710000010927135900399713464_);" d="
			M536.6,55.2c0.5-1.3,1.1-2.6,1.9-3.8c0,0-3.5-0.9-4.2,0.1C533.6,52.6,536.6,55.2,536.6,55.2z"/>
		
			<radialGradient id="SVGID_00000091734284017542301780000004974028808060970380_" cx="-612.5165" cy="825.7023" r="1" gradientTransform="matrix(7.6676 -14.2415 -25.8302 -13.9069 26631.6191 2850.896)" gradientUnits="userSpaceOnUse">
			<stop  offset="2.000000e-02" style="stop-color:#8881BC"/>
			<stop  offset="0.29" style="stop-color:#8375B7"/>
			<stop  offset="0.77" style="stop-color:#7555AA"/>
			<stop  offset="0.99" style="stop-color:#6D43A3"/>
		</radialGradient>
		
			<path style="opacity:0.5;fill-rule:evenodd;clip-rule:evenodd;fill:url(#SVGID_00000091734284017542301780000004974028808060970380_);enable-background:new    ;" d="
			M598,106.8c0,0,4.1-22.3,16.1-34.3c7.1,6.2,17.7,16.8,17.7,16.8s-5.8,8-12.1,22.5C619.7,111.8,608.5,110.2,598,106.8z"/>
		
			<radialGradient id="SVGID_00000005970889419246975670000006095301184219469457_" cx="-612.8431" cy="809.5906" r="1" gradientTransform="matrix(8.1533 -15.1436 -14.9952 -8.0734 17704.0352 -2674.9429)" gradientUnits="userSpaceOnUse">
			<stop  offset="2.000000e-02" style="stop-color:#8881BC"/>
			<stop  offset="0.29" style="stop-color:#8375B7"/>
			<stop  offset="0.77" style="stop-color:#7555AA"/>
			<stop  offset="0.99" style="stop-color:#6D43A3"/>
		</radialGradient>
		
			<path style="opacity:0.5;fill-rule:evenodd;clip-rule:evenodd;fill:url(#SVGID_00000005970889419246975670000006095301184219469457_);enable-background:new    ;" d="
			M551,61.2c-3.6,8.2,2.6,18.9,10.6,23.7c7.9,4.7,17-0.1,21.1-8.3c4.1-8.2,2.2-17.8-7.2-21.6C567,51.5,555.1,52.1,551,61.2z"/>
		<path class="st7" d="M549.7,60.6c-3.6,8.2,2.6,18.9,10.6,23.7c7.9,4.7,17-0.1,21.1-8.3c4.1-8.2,2.2-17.8-7.2-21.6
			C565.7,50.8,553.8,51.4,549.7,60.6z"/>
		
			<radialGradient id="SVGID_00000076594249268777988510000006879319349456930981_" cx="-613.855" cy="829.4929" r="1" gradientTransform="matrix(10.1437 -18.8405 -31.1206 -16.7553 32593.8281 2395.5486)" gradientUnits="userSpaceOnUse">
			<stop  offset="2.000000e-02" style="stop-color:#725EB0"/>
			<stop  offset="0.38" style="stop-color:#6D52AA"/>
			<stop  offset="0.99" style="stop-color:#61349C"/>
		</radialGradient>
		<path style="fill-rule:evenodd;clip-rule:evenodd;fill:url(#SVGID_00000076594249268777988510000006879319349456930981_);" d="
			M548.8,60.1c-3.6,8.2,2.6,18.9,10.6,23.7c7.9,4.7,17-0.1,21.1-8.3c4.1-8.2,2.2-17.8-7.2-21.6C564.8,50.3,552.9,50.9,548.8,60.1z"
			/>
		<path class="st15" d="M552,61.1c-3.4,7.3,2,14.8,8.2,18.6c6.2,3.7,13.3-0.1,16.5-6.5c3.2-6.4,1.8-13.9-5.6-17
			C564.5,53.4,555.6,53.4,552,61.1z"/>
		
			<linearGradient id="SVGID_00000066502780609856756840000015129673991129665668_" gradientUnits="userSpaceOnUse" x1="576.1839" y1="542.1449" x2="553.1299" y2="554.5574" gradientTransform="matrix(1 0 0 -1 -4.093293e-05 616)">
			<stop  offset="0" style="stop-color:#FFFF29"/>
			<stop  offset="1" style="stop-color:#FF7E59"/>
		</linearGradient>
		<path style="fill-rule:evenodd;clip-rule:evenodd;fill:url(#SVGID_00000066502780609856756840000015129673991129665668_);" d="
			M578,65.2c0.3,2.7-0.2,5.4-1.4,7.8c-3.1,6.1-10.5,10.1-16.4,6.5c-2-1.2-3.8-2.8-5.2-4.6c-2.8-3.7-4.1-8.4-1.9-13.3
			c3.2-7.3,11.9-7.3,18.2-4.7C575.4,58.6,577.5,61.8,578,65.2z"/>
		<path class="st9" d="M581.4,75.9l-0.1,0.2l22.6,12.2l0.1-0.2L581.4,75.9z"/>
		<path class="st9" d="M598.1,106.8l-0.2,0c5.5-25.1,16-34.3,16.1-34.4l0.1,0.1C614.1,72.7,603.6,81.9,598.1,106.8z"/>
		<path class="st9" d="M589.7,104.5l-0.2,0c0-0.1-0.7-9.1,5.1-21.4l0.2,0.1C589,95.4,589.7,104.4,589.7,104.5z"/>
		<path class="st7" d="M621.7,94.3l-9.9-4.9l0.8-3.1l10.3,5.9L621.7,94.3z"/>
		
			<radialGradient id="SVGID_00000052073455469241625860000004195674495285462966_" cx="-604.0411" cy="791.2389" r="1" gradientTransform="matrix(3.0121 -5.5946 -10.147 -5.4631 10476.959 1045.7283)" gradientUnits="userSpaceOnUse">
			<stop  offset="2.000000e-02" style="stop-color:#725EB0"/>
			<stop  offset="0.38" style="stop-color:#6D52AA"/>
			<stop  offset="0.99" style="stop-color:#61349C"/>
		</radialGradient>
		<path style="fill-rule:evenodd;clip-rule:evenodd;fill:url(#SVGID_00000052073455469241625860000004195674495285462966_);" d="
			M620.9,110c0,0,4.3-10.3,10.3-19.4l4.1,2.9l-10.3,18L620.9,110z"/>
		<path class="st18" d="M623,110.8c0.1-3,1-6,2.5-8.6c2.5-4.3,8.9-9.3,8.9-9.3l-3.1-2.3c0,0-6.6,9.9-10.3,19.4L623,110.8z"/>
		<path class="st19" d="M558.1,58.7c2-0.6,4-0.9,6-0.8l-0.1-2c0,0-3.4-0.3-5.6,1.3L558.1,58.7z"/>
		<path class="st19" d="M563.4,78.5l2.9-0.1l0.1,1.7L564,80L563.4,78.5z"/>
		
			<radialGradient id="SVGID_00000087392010369896746920000016256785660821322409_" cx="-610.4255" cy="791.583" r="1" gradientTransform="matrix(5.5509 -10.3101 -10.2089 -5.4965 12017.6201 -1883.6366)" gradientUnits="userSpaceOnUse">
			<stop  offset="2.000000e-02" style="stop-color:#8881BC"/>
			<stop  offset="0.29" style="stop-color:#8375B7"/>
			<stop  offset="0.77" style="stop-color:#7555AA"/>
			<stop  offset="0.99" style="stop-color:#6D43A3"/>
		</radialGradient>
		
			<path style="opacity:0.5;fill-rule:evenodd;clip-rule:evenodd;fill:url(#SVGID_00000087392010369896746920000016256785660821322409_);enable-background:new    ;" d="
			M542.4,74.1c0,0,0.3-15.8,15.4-28.7l-3.9,0.3c0,0-9.4,7-14.1,23.7L542.4,74.1z"/>
		
			<linearGradient id="SVGID_00000044896525881567377430000000971435217844052637_" gradientUnits="userSpaceOnUse" x1="596.113" y1="530.3895" x2="594.723" y2="531.1381" gradientTransform="matrix(1 0 0 -1 -4.093293e-05 616)">
			<stop  offset="0" style="stop-color:#8DC7FF"/>
			<stop  offset="0.32" style="stop-color:#5C4D86"/>
		</linearGradient>
		<path style="fill-rule:evenodd;clip-rule:evenodd;fill:url(#SVGID_00000044896525881567377430000000971435217844052637_);" d="
			M595.8,84.5c0.1,0,0.2,0.1,0.2,0.2c0.1,0.1,0.1,0.2,0.1,0.3c0,0.1,0,0.2,0,0.3c0,0.1,0,0.2-0.1,0.3c-0.1,0.2-0.3,0.3-0.5,0.4
			c-0.2,0.1-0.4,0-0.6-0.1c-0.2-0.1-0.3-0.3-0.4-0.5c-0.1-0.2,0-0.4,0.1-0.6c0-0.1,0.1-0.2,0.2-0.2c0.1-0.1,0.2-0.1,0.3-0.1
			c0.1,0,0.2,0,0.3,0S595.7,84.5,595.8,84.5z"/>
		
			<radialGradient id="SVGID_00000176039756004481563110000011269131707856011675_" cx="-477.616" cy="-197.6071" r="1" gradientTransform="matrix(0.2995 -0.5563 -0.5508 -0.2966 630.0524 -238.6678)" gradientUnits="userSpaceOnUse">
			<stop  offset="2.000000e-02" style="stop-color:#8881BC"/>
			<stop  offset="0.29" style="stop-color:#8375B7"/>
			<stop  offset="0.77" style="stop-color:#7555AA"/>
			<stop  offset="1" style="stop-color:#6D43A3"/>
		</radialGradient>
		<path style="fill-rule:evenodd;clip-rule:evenodd;fill:url(#SVGID_00000176039756004481563110000011269131707856011675_);" d="
			M595.7,84.7c0.1,0.1,0.3,0.2,0.3,0.4c0,0.2,0,0.3-0.1,0.5c-0.1,0.1-0.2,0.3-0.4,0.3c-0.2,0.1-0.3,0-0.5,0
			c-0.1-0.1-0.3-0.2-0.3-0.4c0-0.2,0-0.3,0.1-0.5c0.1-0.1,0.2-0.3,0.4-0.3S595.6,84.6,595.7,84.7z"/>
		
			<linearGradient id="SVGID_00000165931316902875716670000001316878557797260959_" gradientUnits="userSpaceOnUse" x1="592.6822" y1="532.235" x2="591.2892" y2="532.9852" gradientTransform="matrix(1 0 0 -1 -4.093293e-05 616)">
			<stop  offset="0" style="stop-color:#8DC7FF"/>
			<stop  offset="0.32" style="stop-color:#5C4D86"/>
		</linearGradient>
		<path style="fill-rule:evenodd;clip-rule:evenodd;fill:url(#SVGID_00000165931316902875716670000001316878557797260959_);" d="
			M592.4,82.7c0.2,0.1,0.3,0.3,0.4,0.5c0.1,0.2,0,0.4-0.1,0.6c-0.1,0.2-0.3,0.3-0.5,0.4c-0.2,0.1-0.4,0-0.6-0.1
			c-0.2-0.1-0.3-0.3-0.4-0.5c-0.1-0.2,0-0.4,0.1-0.6c0-0.1,0.1-0.2,0.2-0.2c0.1-0.1,0.2-0.1,0.3-0.1c0.1,0,0.2,0,0.3,0
			C592.2,82.6,592.3,82.6,592.4,82.7z"/>
		
			<radialGradient id="SVGID_00000042009873282211597420000011841123624793940375_" cx="-477.616" cy="-197.6104" r="1" gradientTransform="matrix(0.2995 -0.5563 -0.5508 -0.2966 626.6069 -240.5234)" gradientUnits="userSpaceOnUse">
			<stop  offset="2.000000e-02" style="stop-color:#8881BC"/>
			<stop  offset="0.29" style="stop-color:#8375B7"/>
			<stop  offset="0.77" style="stop-color:#7555AA"/>
			<stop  offset="1" style="stop-color:#6D43A3"/>
		</radialGradient>
		<path style="fill-rule:evenodd;clip-rule:evenodd;fill:url(#SVGID_00000042009873282211597420000011841123624793940375_);" d="
			M592.3,82.8c0.1,0.1,0.3,0.2,0.3,0.4c0,0.2,0,0.3-0.1,0.5c-0.1,0.1-0.2,0.3-0.4,0.3c-0.2,0.1-0.3,0-0.5,0c-0.1,0-0.1-0.1-0.2-0.2
			c-0.1-0.1-0.1-0.1-0.1-0.2c0-0.1,0-0.2,0-0.2c0-0.1,0-0.2,0.1-0.2c0-0.1,0.1-0.1,0.2-0.2c0.1-0.1,0.1-0.1,0.2-0.1
			c0.1,0,0.2,0,0.2,0C592.1,82.8,592.2,82.8,592.3,82.8z"/>
		<path class="st25" d="M563.1,82.8c0.2-0.4,0.1-0.9-0.3-1.1c-0.4-0.2-0.9-0.1-1.1,0.3c-0.2,0.4-0.1,0.9,0.3,1.1
			C562.4,83.3,562.8,83.1,563.1,82.8z"/>
		
			<radialGradient id="SVGID_00000173881480437753321450000013281191398327132062_" cx="-477.616" cy="-197.6104" r="1" gradientTransform="matrix(0.2995 -0.5563 -0.5508 -0.2966 596.8929 -241.5533)" gradientUnits="userSpaceOnUse">
			<stop  offset="0" style="stop-color:#F4BAB3"/>
			<stop  offset="1" style="stop-color:#8D6FC7"/>
		</radialGradient>
		<path style="fill-rule:evenodd;clip-rule:evenodd;fill:url(#SVGID_00000173881480437753321450000013281191398327132062_);" d="
			M562.7,81.8c0.1,0.1,0.3,0.2,0.3,0.4c0,0.2,0,0.3-0.1,0.5c-0.1,0.1-0.2,0.3-0.4,0.3c-0.2,0.1-0.3,0-0.5,0
			c-0.1-0.1-0.2-0.2-0.3-0.4c0-0.2,0-0.3,0.1-0.5c0-0.1,0.1-0.1,0.2-0.2c0.1-0.1,0.1-0.1,0.2-0.1c0.1,0,0.2,0,0.2,0
			C562.5,81.8,562.6,81.8,562.7,81.8z"/>
		<path class="st7" d="M553.6,75.1c0.2,0.1,0.3,0.3,0.4,0.5c0.1,0.2,0,0.4-0.1,0.6c0,0.1-0.1,0.2-0.2,0.2c-0.1,0.1-0.2,0.1-0.3,0.1
			c-0.1,0-0.2,0-0.3,0c-0.1,0-0.2,0-0.3-0.1c-0.1-0.1-0.2-0.1-0.2-0.2c-0.1-0.1-0.1-0.2-0.1-0.3c0-0.1,0-0.2,0-0.3
			c0-0.1,0-0.2,0.1-0.3c0.1-0.2,0.3-0.3,0.5-0.4C553.1,75,553.4,75,553.6,75.1z"/>
		
			<radialGradient id="SVGID_00000008857692014562841820000007051794855016619653_" cx="-477.616" cy="-197.6071" r="1" gradientTransform="matrix(0.2995 -0.5563 -0.5508 -0.2966 587.6823 -248.1072)" gradientUnits="userSpaceOnUse">
			<stop  offset="0" style="stop-color:#F4BAB3"/>
			<stop  offset="1" style="stop-color:#8D6FC7"/>
		</radialGradient>
		<path style="fill-rule:evenodd;clip-rule:evenodd;fill:url(#SVGID_00000008857692014562841820000007051794855016619653_);" d="
			M553.5,75.3c0.1,0.1,0.3,0.2,0.3,0.4c0,0.2,0,0.3-0.1,0.5c-0.1,0.1-0.2,0.3-0.4,0.3s-0.3,0-0.5,0c-0.1-0.1-0.3-0.2-0.3-0.4
			c0-0.2,0-0.3,0.1-0.5c0.1-0.1,0.2-0.3,0.4-0.3C553.1,75.2,553.3,75.2,553.5,75.3z"/>
		<path class="st7" d="M574.1,79.3c0.1,0,0.2,0.1,0.2,0.2c0.1,0.1,0.1,0.2,0.1,0.3c0,0.1,0,0.2,0,0.3c0,0.1,0,0.2-0.1,0.3
			c-0.1,0.2-0.3,0.3-0.5,0.4s-0.4,0-0.6-0.1c-0.2-0.1-0.3-0.3-0.4-0.5c-0.1-0.2,0-0.4,0.1-0.6c0-0.1,0.1-0.2,0.2-0.2
			c0.1-0.1,0.2-0.1,0.3-0.1c0.1,0,0.2,0,0.3,0C573.9,79.2,574,79.2,574.1,79.3z"/>
		
			<radialGradient id="SVGID_00000152955372691639737930000011541180286739340943_" cx="-477.616" cy="-197.6071" r="1" gradientTransform="matrix(0.2995 -0.5563 -0.5508 -0.2966 608.2463 -243.9505)" gradientUnits="userSpaceOnUse">
			<stop  offset="0" style="stop-color:#F4BAB3"/>
			<stop  offset="1" style="stop-color:#8D6FC7"/>
		</radialGradient>
		<path style="fill-rule:evenodd;clip-rule:evenodd;fill:url(#SVGID_00000152955372691639737930000011541180286739340943_);" d="
			M574,79.4c0.1,0.1,0.3,0.2,0.3,0.4c0,0.2,0,0.3-0.1,0.5c-0.1,0.1-0.2,0.3-0.4,0.3c-0.2,0.1-0.3,0-0.5,0c-0.1-0.1-0.3-0.2-0.3-0.4
			c0-0.2,0-0.3,0.1-0.5c0.1-0.1,0.2-0.3,0.4-0.3S573.8,79.4,574,79.4z"/>
		<path class="st7" d="M580.8,68.8c0.1,0,0.2,0.1,0.2,0.2c0.1,0.1,0.1,0.2,0.1,0.3c0,0.1,0,0.2,0,0.3c0,0.1,0,0.2-0.1,0.3
			c-0.1,0.2-0.3,0.3-0.5,0.4c-0.2,0.1-0.4,0-0.6-0.1c-0.2-0.1-0.3-0.3-0.4-0.5c-0.1-0.2,0-0.4,0.1-0.6c0-0.1,0.1-0.2,0.2-0.2
			c0.1-0.1,0.2-0.1,0.3-0.1c0.1,0,0.2,0,0.3,0C580.6,68.7,580.7,68.8,580.8,68.8z"/>
		
			<radialGradient id="SVGID_00000121249805277548622330000007279653215320633274_" cx="-477.616" cy="-197.6104" r="1" gradientTransform="matrix(0.2995 -0.5563 -0.5508 -0.2966 614.9639 -254.4133)" gradientUnits="userSpaceOnUse">
			<stop  offset="0" style="stop-color:#F4BAB3"/>
			<stop  offset="1" style="stop-color:#8D6FC7"/>
		</radialGradient>
		<path style="fill-rule:evenodd;clip-rule:evenodd;fill:url(#SVGID_00000121249805277548622330000007279653215320633274_);" d="
			M580.7,69c0.1,0.1,0.3,0.2,0.3,0.4c0,0.2,0,0.3-0.1,0.5c-0.1,0.1-0.2,0.3-0.4,0.3c-0.2,0.1-0.3,0-0.5,0c-0.1,0-0.1-0.1-0.2-0.2
			c-0.1-0.1-0.1-0.1-0.1-0.2c0-0.1,0-0.2,0-0.2c0-0.1,0-0.2,0.1-0.2c0-0.1,0.1-0.1,0.2-0.2c0.1-0.1,0.1-0.1,0.2-0.1
			c0.1,0,0.2,0,0.2,0C580.5,68.9,580.6,68.9,580.7,69z"/>
		<path class="st25" d="M578.6,59c0.2-0.4,0.1-0.9-0.3-1.1c-0.4-0.2-0.9-0.1-1.1,0.3c-0.2,0.4-0.1,0.9,0.3,1.1
			C577.9,59.6,578.4,59.4,578.6,59z"/>
		
			<radialGradient id="SVGID_00000128475607568508881850000001672072637459671949_" cx="-477.616" cy="-197.6071" r="1" gradientTransform="matrix(0.2995 -0.5563 -0.5508 -0.2966 612.4313 -265.3093)" gradientUnits="userSpaceOnUse">
			<stop  offset="0" style="stop-color:#F4BAB3"/>
			<stop  offset="1" style="stop-color:#8D6FC7"/>
		</radialGradient>
		<path style="fill-rule:evenodd;clip-rule:evenodd;fill:url(#SVGID_00000128475607568508881850000001672072637459671949_);" d="
			M578.2,58.1c0.1,0.1,0.3,0.2,0.3,0.4c0,0.2,0,0.3-0.1,0.5c-0.1,0.1-0.2,0.3-0.4,0.3c-0.2,0.1-0.3,0-0.5,0
			c-0.1-0.1-0.3-0.2-0.3-0.4c0-0.2,0-0.3,0.1-0.5c0.1-0.1,0.2-0.3,0.4-0.3C577.8,58,578,58,578.2,58.1z"/>
		<path class="st7" d="M565.3,52.4c0.1,0,0.2,0.1,0.2,0.2c0.1,0.1,0.1,0.2,0.1,0.3c0,0.1,0,0.2,0,0.3c0,0.1,0,0.2-0.1,0.3
			c-0.1,0.2-0.3,0.3-0.5,0.4c-0.2,0.1-0.4,0-0.6-0.1c-0.2-0.1-0.3-0.3-0.4-0.5c-0.1-0.2,0-0.4,0.1-0.6c0-0.1,0.1-0.2,0.2-0.2
			c0.1-0.1,0.2-0.1,0.3-0.1c0.1,0,0.2,0,0.3,0C565.1,52.4,565.2,52.4,565.3,52.4z"/>
		
			<radialGradient id="SVGID_00000005957474063489942230000002384971189937492913_" cx="-477.616" cy="-197.6071" r="1" gradientTransform="matrix(0.2995 -0.5563 -0.5508 -0.2966 599.4523 -270.8363)" gradientUnits="userSpaceOnUse">
			<stop  offset="0" style="stop-color:#F4BAB3"/>
			<stop  offset="1" style="stop-color:#8D6FC7"/>
		</radialGradient>
		<path style="fill-rule:evenodd;clip-rule:evenodd;fill:url(#SVGID_00000005957474063489942230000002384971189937492913_);" d="
			M565.2,52.6c0.1,0.1,0.3,0.2,0.3,0.4c0,0.2,0,0.3-0.1,0.5c-0.1,0.1-0.2,0.3-0.4,0.3s-0.3,0-0.5,0c-0.1-0.1-0.3-0.2-0.3-0.4
			c0-0.2,0-0.3,0.1-0.5c0.1-0.1,0.2-0.3,0.4-0.3C564.9,52.5,565.1,52.5,565.2,52.6z"/>
		<path class="st7" d="M556,54.6c0.1,0,0.2,0.1,0.2,0.2c0.1,0.1,0.1,0.2,0.1,0.3c0,0.1,0,0.2,0,0.3c0,0.1,0,0.2-0.1,0.3
			c-0.1,0.2-0.3,0.3-0.5,0.4c-0.2,0.1-0.4,0-0.6-0.1c-0.2-0.1-0.3-0.3-0.4-0.5c-0.1-0.2,0-0.4,0.1-0.6c0-0.1,0.1-0.2,0.2-0.2
			c0.1-0.1,0.2-0.1,0.3-0.1c0.1,0,0.2,0,0.3,0C555.8,54.5,555.9,54.5,556,54.6z"/>
		
			<radialGradient id="SVGID_00000018923645400082569010000016160122020513631419_" cx="-477.616" cy="-197.6071" r="1" gradientTransform="matrix(0.2995 -0.5563 -0.5508 -0.2966 590.0853 -268.7149)" gradientUnits="userSpaceOnUse">
			<stop  offset="0" style="stop-color:#F4BAB3"/>
			<stop  offset="1" style="stop-color:#8D6FC7"/>
		</radialGradient>
		<path style="fill-rule:evenodd;clip-rule:evenodd;fill:url(#SVGID_00000018923645400082569010000016160122020513631419_);" d="
			M555.9,54.7c0.1,0.1,0.3,0.2,0.3,0.4c0,0.2,0,0.3-0.1,0.5c-0.1,0.1-0.2,0.3-0.4,0.3s-0.3,0-0.5,0c-0.1-0.1-0.3-0.2-0.3-0.4
			c0-0.2,0-0.3,0.1-0.5c0.1-0.1,0.2-0.3,0.4-0.3C555.6,54.6,555.7,54.6,555.9,54.7z"/>
		<path class="st7" d="M549.9,63.4c0.2,0.1,0.3,0.3,0.4,0.5c0.1,0.2,0,0.4-0.1,0.6c0,0.1-0.1,0.2-0.2,0.2c-0.1,0.1-0.2,0.1-0.3,0.1
			c-0.1,0-0.2,0-0.3,0c-0.1,0-0.2,0-0.3-0.1c-0.1,0-0.2-0.1-0.2-0.2c-0.1-0.1-0.1-0.2-0.1-0.3c0-0.1,0-0.2,0-0.3
			c0-0.1,0-0.2,0.1-0.3c0.1-0.2,0.3-0.3,0.5-0.4C549.5,63.3,549.8,63.3,549.9,63.4z"/>
		
			<radialGradient id="SVGID_00000033362923742152215130000011697983325838699664_" cx="-477.616" cy="-197.6104" r="1" gradientTransform="matrix(0.2995 -0.5563 -0.5508 -0.2966 584.0479 -259.9047)" gradientUnits="userSpaceOnUse">
			<stop  offset="0" style="stop-color:#F4BAB3"/>
			<stop  offset="1" style="stop-color:#8D6FC7"/>
		</radialGradient>
		<path style="fill-rule:evenodd;clip-rule:evenodd;fill:url(#SVGID_00000033362923742152215130000011697983325838699664_);" d="
			M549.9,63.5c0.1,0,0.1,0.1,0.2,0.2c0.1,0.1,0.1,0.1,0.1,0.2c0,0.1,0,0.2,0,0.2c0,0.1,0,0.2-0.1,0.2c0,0.1-0.1,0.1-0.2,0.2
			c-0.1,0.1-0.1,0.1-0.2,0.1c-0.1,0-0.2,0-0.2,0c-0.1,0-0.2,0-0.2-0.1c-0.1-0.1-0.3-0.2-0.3-0.4c0-0.2,0-0.3,0.1-0.5
			c0.1-0.1,0.2-0.3,0.4-0.3C549.5,63.4,549.7,63.4,549.9,63.5z"/>
		<path class="st34" d="M627,120.2l0.3-0.5l-19-9.5l-0.3,0.5L627,120.2z"/>
		<path class="st34" d="M624.4,80.3l-0.3,0.5l18.5,10.4l0.2-0.4L624.4,80.3z"/>
		
			<linearGradient id="SVGID_00000078753104559969531200000014253032816075747981_" gradientUnits="userSpaceOnUse" x1="637.7316" y1="515.7184" x2="608.4024" y2="531.5097" gradientTransform="matrix(1 0 0 -1 -4.093293e-05 616)">
			<stop  offset="0" style="stop-color:#A43411"/>
			<stop  offset="1" style="stop-color:#C73634"/>
		</linearGradient>
		<path style="fill-rule:evenodd;clip-rule:evenodd;fill:url(#SVGID_00000078753104559969531200000014253032816075747981_);" d="
			M608.3,84.8l1-1.9l28.3,17.6l-0.7,1.3L608.3,84.8z"/>
		<path class="st36" d="M608.3,84.8l5.8,4.8l22.8,12.3L608.3,84.8z"/>
		<path class="st18" d="M610.1,83.5l21.7,5.8l-2.7,4.4l4.6,2.6l-0.8,1.5L610.1,83.5z"/>
		<path class="st19" d="M547.2,78.6c0,0-2.1-0.9-2.7-2.9l0.6-1c0.8,1.1,1.6,2.2,2.3,3.4L547.2,78.6z"/>
		<g>
			<path class="st19" d="M609.2,69.8l-7.7-6.6l0.3-0.5l7.7,6.5L609.2,69.8z"/>
		</g>
		
			<linearGradient id="SVGID_00000034078670111676074850000010686462177968566440_" gradientUnits="userSpaceOnUse" x1="572.9236" y1="568.5938" x2="573.8704" y2="570.3528" gradientTransform="matrix(1 0 0 -1 -4.093293e-05 616)">
			<stop  offset="0" style="stop-color:#FFFF18"/>
			<stop  offset="1" style="stop-color:#FF7400"/>
		</linearGradient>
		<path style="fill-rule:evenodd;clip-rule:evenodd;fill:url(#SVGID_00000034078670111676074850000010686462177968566440_);" d="
			M571.4,46.6c0,0,1.1-3.6,3.6,0.8L571.4,46.6z"/>
		
			<linearGradient id="SVGID_00000105425239740196905200000012298880313768866750_" gradientUnits="userSpaceOnUse" x1="551.0223" y1="529.0566" x2="551.9125" y2="530.7101" gradientTransform="matrix(1 0 0 -1 -4.093293e-05 616)">
			<stop  offset="0" style="stop-color:#FFFF18"/>
			<stop  offset="1" style="stop-color:#FF7400"/>
		</linearGradient>
		<path style="fill-rule:evenodd;clip-rule:evenodd;fill:url(#SVGID_00000105425239740196905200000012298880313768866750_);" d="
			M550.4,84.5c0,0-0.7,3.5,2.5,2.5L550.4,84.5z"/>
		<g class="st39">
			<path class="st40" d="M621.1,108.4c0,0-30.4-5.5-51.5-12.5l0,1c0,0,31.7,12,50.3,14.4L621.1,108.4z"/>
		</g>
		<g>
			<path class="st40" d="M599.7,61.8l-4.9-3.9l0.3-0.5l4.9,3.9L599.7,61.8z"/>
		</g>
		<g>
			<path class="st40" d="M590.1,100.6c0,0,0.5-6.9,2.9-12.5C593,88.1,591.3,94.1,590.1,100.6z"/>
		</g>
		<g>
			<path class="st40" d="M583.6,76.9l19.9,10.5C603.5,87.4,596.5,83.2,583.6,76.9z"/>
		</g>
		<g>
			<path class="st40" d="M599.4,102.3c0,0,3.3-15.4,12.7-26.9C612.1,75.4,604.7,83.7,599.4,102.3z"/>
		</g>
		<path class="st40" d="M549,71.3c0,0,1.7-1.4-1.1-4.3C548.1,68.5,548.4,69.9,549,71.3z"/>
		<g>
			<path class="st40" d="M581.3,73.8c0,0,2.1-4.5,0.2-12.2C581.5,61.6,584.1,67,581.3,73.8z"/>
		</g>
		<g>
			<path class="st40" d="M576.6,73.4c0,0,4.1-2.7,1.8-7.3C578.3,66.1,579,69.1,576.6,73.4z"/>
		</g>
		<g class="st41">
			<g class="st41">
				<path class="st40" d="M584.7,78.7c0,0.3,0,0.9,0.4,1c0.2,0,0.4,0.1,0.5,0.1c0.2,0,0.3,0.1,0.5,0.1c0.2,0.1,0.5,0.1,0.8,0.1
					c0.2,0,0.1-0.2,0-0.3c-0.1-0.1-0.2-0.3-0.3-0.4c-0.2-0.1-0.3-0.2-0.5-0.3c-0.1-0.1-0.1-0.1-0.2-0.2c-0.1-0.1-0.2-0.1-0.3-0.2
					c-0.2-0.1-0.3-0.1-0.5-0.1C584.9,78.5,584.8,78.6,584.7,78.7z"/>
			</g>
			<g class="st41">
				<path class="st40" d="M587,81.2c0,0-0.1,0-0.1-0.1c0,0-0.1-0.1-0.1-0.1c0.2-0.3,0.9-0.1,0.9,0.3c0,0.4-0.6,0.2-0.7,0L587,81.2z"
					/>
			</g>
			<g class="st41">
				<path class="st40" d="M587.9,89.7c0-0.2,0-0.4,0.1-0.6c0.1-0.1,0.3-0.2,0.5-0.3c0.2,0,0.5,0,0.7,0c0.1,0,0.2,0,0.3,0.1
					c0.3,0.3,0.4,0.9,0.3,1.3c0,0.2-0.1,0.5-0.2,0.7c-0.1,0.1-0.1,0.3-0.2,0.5c0,0.1-0.1,0.3-0.2,0.4c-0.1,0.1-0.2,0.1-0.3,0.2
					c-0.1,0.1-0.3,0.1-0.5,0.1c-0.2,0-0.3,0-0.5-0.1c-0.5-0.3-0.6-1.1-0.6-1.7C587.4,90,587.5,89.3,587.9,89.7z"/>
			</g>
			<g class="st41">
				<path class="st40" d="M588.1,87.7c0.1,0.1,0.1,0.2,0.3,0.1c0.1,0,0.1-0.1,0.1-0.1c0,0,0.1-0.1,0.1-0.2c0-0.2-0.1-0.6-0.4-0.6
					c-0.1,0-0.4,0.1-0.5,0.2c-0.1,0.1-0.1,0.3,0,0.4c0,0.1,0.1,0.3,0.3,0.3L588.1,87.7z"/>
			</g>
			<g class="st41">
				<path class="st40" d="M596.7,83.6c0.1,0.1,0.1,0.1,0.2,0.2c0.2,0.1,0.4,0.2,0.6,0.3c0.4,0.2,0.7,0.5,1.1,0.7
					c0.3,0.1,0.6,0.3,0.9,0.3c0.2,0.1,0.3,0.1,0.5,0.1c0,0-0.1-0.1-0.1-0.1c-0.1-0.1-0.2-0.2-0.2-0.3c-0.2-0.2-0.3-0.5-0.5-0.7
					c0,0-0.1-0.1-0.1-0.1c0-0.1,0-0.1-0.1-0.2c0-0.1-0.1-0.2-0.2-0.3c-0.2-0.2-0.4-0.4-0.7-0.5c-0.1,0-0.2-0.1-0.3-0.1
					c-0.1-0.1-0.2-0.1-0.3-0.1c-0.2-0.1-0.4-0.1-0.7-0.1c-0.3,0-0.7,0-0.9,0.2c-0.1,0.1,0,0.2,0.1,0.3c0.1,0.1,0.2,0.2,0.4,0.3
					C596.5,83.5,596.7,83.7,596.7,83.6z"/>
			</g>
			<g class="st41">
				<path class="st40" d="M595.1,82.4c-0.1-0.1-0.2-0.3-0.1-0.4c0.1-0.1,0.3,0,0.4,0.1c0.2,0.2-0.2,0.4-0.4,0.3L595.1,82.4z"/>
			</g>
			<g class="st41">
				<path class="st40" d="M598.1,80.7c0.1,0.1,0.2,0.2,0.3,0.2c0.1,0,0.2,0,0.2,0c0.1,0,0.1-0.1,0.2-0.2c0.1-0.2,0.2-0.4,0-0.6
					c-0.1-0.1-0.2-0.1-0.3-0.1c-0.1,0-0.2,0-0.3,0c-0.1,0-0.1,0.1-0.2,0.2C597.9,80.4,597.9,80.5,598.1,80.7L598.1,80.7z"/>
			</g>
			<g class="st41">
				<path class="st40" d="M608.5,79.3c0-0.5,0.1-0.9,0.2-1.3c0.1-0.4,0.3-0.7,0.5-1.1c0.2-0.5,0.3-1,0.4-1.6
					c0.1-0.5,0.3-0.9,0.6-1.3c0.1-0.1,0.3-0.3,0.5-0.4c0.2-0.1,0.4-0.1,0.6-0.1c0.2,0,0.5,0.1,0.7,0.1c0.1,0.1,0.2,0.1,0.3,0.1
					c0.1,0,0.1,0,0.2,0.1c0.1,0.1,0.1,0.1,0,0.2c-0.1,0.2-0.2,0.3-0.3,0.4c-0.3,0.2-0.5,0.4-0.6,0.6c-0.2,0.2-0.4,0.4-0.5,0.7
					l-0.5,0.7c-0.1,0.2-0.3,0.4-0.4,0.6c-0.1,0.2-0.3,0.4-0.4,0.6c-0.1,0.2-0.2,0.4-0.3,0.5c-0.1,0.1-0.1,0.2-0.2,0.3
					c0,0.1-0.1,0.2-0.2,0.2c0,0.1-0.1,0.2-0.1,0.3C608.7,79.1,608.6,79.2,608.5,79.3z"/>
			</g>
			<g class="st41">
				<path class="st40" d="M608.2,76.2c0,0.1,0,0.2,0.1,0.2c0,0,0.1,0,0.1,0.1c0.2,0,0.3-0.2,0.4-0.3c0.2-0.4,0.3-0.8,0.2-1.2
					c0-0.1-0.1-0.3-0.2-0.4s-0.2-0.2-0.3-0.3c-0.4-0.1-0.8,0.2-1,0.4s-0.5,0.7-0.4,1c0,0.1,0.1,0.2,0.2,0.3c0.1,0,0.2,0.1,0.3,0.1
					c0.1,0.1,0.2,0.2,0.3,0.2C608,76.3,608.1,76.2,608.2,76.2z"/>
			</g>
			<g class="st41">
				<path class="st40" d="M609.4,74c0,0-0.1,0-0.1,0c0,0,0-0.1-0.1-0.1c0,0,0-0.1,0-0.1c0,0,0-0.1,0.1-0.1c0,0,0.1-0.1,0.1-0.1
					c0,0,0.1,0,0.1,0c0,0,0.1,0,0.1,0c0,0,0.1,0,0.1,0.1c0,0,0,0.1,0,0.2c0,0.1,0,0.1,0,0.2c0,0.1-0.1,0.1-0.1,0.1
					C609.5,74.1,609.4,74.1,609.4,74L609.4,74z"/>
			</g>
			<g class="st41">
				<path class="st40" d="M603.1,67.1c0,0.1,0,0.3,0.1,0.4c0,0,0,0.1,0.1,0.1c0,0,0.1,0,0.1,0c0.3,0,0.5-0.1,0.7-0.3
					c0.1-0.1,0.1-0.1,0.1-0.2c0-0.1,0.1-0.2,0.1-0.2c0-0.2-0.1-0.3-0.1-0.4c0-0.1-0.1-0.2-0.2-0.4c0-0.1-0.1-0.2-0.2-0.3
					c-0.1-0.1-0.2-0.1-0.3-0.1c-0.1,0-0.2,0.1-0.3,0.1c-0.1,0.1-0.2,0.2-0.2,0.3c-0.1,0.1-0.1,0.3-0.1,0.5
					C602.8,66.7,602.8,66.9,603.1,67.1z"/>
			</g>
			<g class="st41">
				<path class="st40" d="M603.5,68.2c0.1-0.1,0.2-0.2,0.3-0.3c0,0,0.1,0,0.1,0c0,0.1,0,0.2-0.1,0.3c0,0.1-0.1,0.1-0.2,0.2
					c0,0-0.2,0-0.1,0L603.5,68.2z"/>
			</g>
			<g class="st41">
				<path class="st40" d="M604.5,81.4c0.1,0.1,0.2,0.3,0.4,0.2c0.1,0,0.2-0.1,0.2-0.2c0-0.1,0.1-0.2,0.1-0.3c0-0.1,0-0.2-0.1-0.2
					c-0.1-0.1-0.2-0.1-0.3-0.1c-0.2-0.1-0.2-0.4-0.5-0.3c-0.1,0-0.1,0.1-0.2,0.1c-0.1,0-0.1,0.1-0.1,0.2c-0.1,0.2,0.1,0.4,0.2,0.6
					L604.5,81.4z"/>
			</g>
			<g class="st41">
				<path class="st40" d="M603.1,101.8c-0.1,0.3-0.1,0.5,0,0.8l0.1,0c0.1,0.1,0.1,0.1,0.2,0.2c0.1,0,0.2,0.1,0.3,0.1
					c0.6,0,0.8-0.5,1-0.9c0.2-0.4,0.6-1-0.1-1.2c-0.3-0.1-0.9-0.2-1.2,0c-0.2,0.1-0.2,0.2-0.2,0.4C603,101.3,603,101.6,603.1,101.8
					L603.1,101.8z"/>
			</g>
			<g class="st41">
				<path class="st40" d="M606.7,96.8c-0.1-0.1-0.3-0.4-0.2-0.6c0.1-0.2,0.2-0.2,0.3-0.2c0.3-0.1,0.6-0.3,0.8,0.1c0,0.1,0,0.2,0,0.3
					c0,0.1-0.1,0.2-0.1,0.3c-0.1,0.1-0.4,0.3-0.6,0.2L606.7,96.8z"/>
			</g>
			<g class="st41">
				<path class="st40" d="M578.3,52.6c0.3,0.4,0.3,0.4,0.7,0.5c0.3,0.1,0.6,0.1,1,0.1c0.4-0.1,0.6-0.5,0.8-0.8
					c0.1-0.1,0.2-0.2,0.2-0.3c0-0.1,0.1-0.3,0-0.4c-0.1-0.3-0.2-0.7-0.4-1c-0.3-0.4-0.7-0.8-1.2-1.1c-0.5-0.3-1-0.4-1.5-0.5
					c-0.7,0-1.5,0-2,0.5c-0.2,0.2-0.4,0.5-0.4,0.8c-0.1,0.3-0.1,0.6,0,0.9c0.1,0.3,0.3,0.5,0.5,0.7c0.2,0.2,0.5,0.3,0.8,0.4l0.4,0.1
					c0.2,0.1,0.3,0.2,0.5,0.3C577.9,52.9,578.1,52.8,578.3,52.6z"/>
			</g>
			<g class="st41">
				<path class="st40" d="M579.1,54.3c0.5-0.2,0.4-0.2,0.7,0c0.2,0.1,0.2,0,0.4,0.1c0.1,0.1,0.1,0.2,0.1,0.3c0,0.1,0,0.2-0.1,0.3
					c-0.1,0.1-0.5,0.2-0.6,0.2c-0.1,0-0.2,0-0.2-0.1c-0.1,0-0.1-0.1-0.2-0.2L579.1,54.3z"/>
			</g>
			<g class="st41">
				<path class="st40" d="M560.7,88.5c0.2,0.2,0.5,0.5,0.9,0.3c0.3-0.2,0.3-0.6,0.3-0.8c-0.1-0.5-0.4-0.9-0.8-1.2
					c-0.3-0.3-1,0-1.2,0.3c-0.5,0.7,0.4,1.6,0.9,2L560.7,88.5z"/>
			</g>
			<g class="st41">
				<path class="st40" d="M563.6,90.7c-0.1,0-0.4,0-0.5,0c0,0,0-0.1,0-0.1c0-0.1-0.1-0.2-0.1-0.2s0-0.2,0-0.3c0-0.2,0.2-0.3,0.3-0.4
					s0.3-0.2,0.5-0.2c0.1,0,0.2,0,0.3,0.1c0.1,0.1,0.2,0.2,0.2,0.3c0,0.2,0,0.3,0,0.5c-0.1,0.1-0.2,0.3-0.3,0.3L563.6,90.7z"/>
			</g>
			<g class="st41">
				<path class="st40" d="M617.6,79.6c0.4,0.5,0.9,0.8,1.5,1c0.4,0.1,0.9,0.3,1.2,0c0.8-0.7-0.7-2.3-1.2-2.8c-0.4-0.4-1-0.7-1.5-0.9
					c-0.3-0.1-1.1-0.2-1.4,0c-0.4,0.3-0.4,0.9-0.2,1.3c0.4,0.9,1.4,1.3,2.1,2L617.6,79.6z"/>
			</g>
			<g class="st41">
				<path class="st40" d="M617.2,80c-0.1,0.2-0.2,0.5-0.2,0.7c0,0.1,0,0.3,0.1,0.4c0.1,0,0.2,0.1,0.3,0.1c0.1,0,0.2,0,0.3,0
					c0.1,0,0.1-0.1,0.2-0.1c0,0,0.1-0.1,0.1-0.2c0-0.1-0.1-0.2-0.1-0.3c-0.1-0.2-0.2-0.3-0.3-0.4c0-0.1-0.1-0.1-0.2-0.2
					c-0.1-0.1-0.2,0-0.3,0L617.2,80z"/>
			</g>
			<g class="st41">
				<path class="st40" d="M621.5,82.9l0.3-0.2c0.1,0.1,0.3,0.1,0.3,0.3c0,0.1-0.1,0.3-0.2,0.4c0,0.1-0.1,0.1-0.2,0.1
					c-0.1,0-0.1,0-0.2,0C621.3,83.3,621.3,83.1,621.5,82.9L621.5,82.9z"/>
			</g>
			<g class="st41">
				<path class="st40" d="M620.3,99.6c0,0.1,0.1,0.1,0.2,0.1c0.1,0,0.1,0,0.2,0c0.1,0,0.2-0.1,0.3-0.2c0.1-0.1,0.1-0.2,0.1-0.4
					c-0.1-0.4-0.3-0.9-0.7-1c-0.2-0.1-0.6,0.1-0.6,0.4c0,0.2,0,0.3,0.1,0.5C619.8,99.3,620,99.5,620.3,99.6L620.3,99.6z"/>
			</g>
			<g class="st41">
				<path class="st40" d="M555.2,50.7c0,0.1,0,0.2,0.2,0.3c0.1,0.1,0.3,0.2,0.4,0.2c0.4-0.1,0.7-0.3,1-0.6c0.1-0.1,0.2-0.2,0.2-0.4
					c0-0.1,0.1-0.3,0-0.4c0-0.2-0.1-0.3-0.1-0.5c-0.1-0.1-0.2-0.3-0.3-0.4c-0.1-0.1-0.3-0.2-0.4-0.2c-0.2,0-0.3,0-0.5,0.1
					c-0.3,0.1-0.6,0.3-0.8,0.6c-0.1,0.1-0.1,0.2-0.2,0.3c0,0.1,0,0.3,0,0.4C554.7,50.5,554.9,50.8,555.2,50.7z"/>
			</g>
			<g class="st41">
				<path class="st40" d="M557.4,49c-0.1,0-0.2-0.1-0.2-0.2c0-0.1,0.1-0.1,0.2-0.2c0.1-0.1,0.1-0.1,0.2-0.1c0.1,0,0.3,0,0.4,0.1
					c0.1,0.1,0.1,0.2,0.1,0.2c0,0.1,0,0.1,0,0.2c0,0.1-0.1,0.1-0.1,0.1c-0.1,0-0.3,0.2-0.4,0.1L557.4,49z"/>
			</g>
			<g class="st41">
				<path class="st40" d="M543,50.2c0.1,0.1,0.3,0.1,0.4,0.1c0.3,0,0.5-0.1,0.7-0.2c0.3-0.2,0.6-0.4,0.7-0.7c0-0.1,0-0.3,0-0.4
					c0-0.1-0.1-0.2-0.2-0.3c-0.3-0.2-0.6-0.3-0.9-0.2c-0.3,0-0.5,0.1-0.8,0.3c-0.2,0.2-0.4,0.4-0.5,0.6C542.2,50,543,50.4,543,50.2z
					"/>
			</g>
			<g class="st41">
				<path class="st40" d="M546.3,48.9c-0.1,0-0.2,0-0.3,0c0-0.1-0.1-0.2-0.1-0.3c0-0.1,0.1-0.2,0.2-0.3c0.1,0,0.1-0.1,0.2-0.1
					s0.1,0,0.2,0c0.1,0.1,0.1,0.1,0.1,0.3c0,0.1,0,0.1-0.1,0.2C546.5,48.8,546.4,48.9,546.3,48.9L546.3,48.9z"/>
			</g>
		</g>
		
			<linearGradient id="SVGID_00000105388532242704828640000010843798519412450691_" gradientUnits="userSpaceOnUse" x1="599.9711" y1="514.1232" x2="598.363" y2="514.9891" gradientTransform="matrix(1 0 0 -1 -4.093293e-05 616)">
			<stop  offset="0" style="stop-color:#8DC7FF"/>
			<stop  offset="0.32" style="stop-color:#5C4D86"/>
		</linearGradient>
		<path style="fill-rule:evenodd;clip-rule:evenodd;fill:url(#SVGID_00000105388532242704828640000010843798519412450691_);" d="
			M599.5,100.9c0.4,0.2,0.7,0.7,0.5,1c-0.2,0.3-0.7,0.4-1.1,0.2c-0.4-0.2-0.7-0.7-0.5-1C598.5,100.7,599,100.6,599.5,100.9z"/>
		<path class="st40" d="M599.4,101c0.4,0.2,0.5,0.5,0.4,0.8c-0.1,0.3-0.5,0.3-0.9,0.1c-0.4-0.2-0.5-0.5-0.4-0.8
			C598.7,100.8,599.1,100.8,599.4,101z"/>
		
			<linearGradient id="SVGID_00000052094134508449488010000005870869823031551127_" gradientUnits="userSpaceOnUse" x1="610.913" y1="538.4552" x2="609.3052" y2="539.3214" gradientTransform="matrix(1 0 0 -1 -4.093293e-05 616)">
			<stop  offset="0" style="stop-color:#8DC7FF"/>
			<stop  offset="0.32" style="stop-color:#5C4D86"/>
		</linearGradient>
		<path style="fill-rule:evenodd;clip-rule:evenodd;fill:url(#SVGID_00000052094134508449488010000005870869823031551127_);" d="
			M610.5,76.5c0.2,0.1,0.4,0.2,0.4,0.4c0.1,0.2,0.1,0.4,0,0.6c-0.1,0.2-0.3,0.3-0.5,0.3c-0.2,0-0.4,0-0.6-0.1
			c-0.2-0.1-0.4-0.2-0.4-0.4s-0.1-0.4,0-0.6c0.1-0.2,0.3-0.3,0.5-0.3C610,76.3,610.3,76.3,610.5,76.5z"/>
		<path class="st40" d="M610.4,76.6c0.2,0.1,0.3,0.2,0.4,0.4c0.1,0.2,0.1,0.3,0,0.5c-0.1,0.1-0.2,0.2-0.4,0.3c-0.2,0-0.3,0-0.5-0.1
			c-0.2-0.1-0.3-0.2-0.4-0.4s-0.1-0.3,0-0.5c0.1-0.1,0.2-0.2,0.4-0.3C610.1,76.5,610.2,76.5,610.4,76.6z"/>
		
			<linearGradient id="SVGID_00000129890245328615944070000013642260614539698330_" gradientUnits="userSpaceOnUse" x1="604.787" y1="527.3746" x2="603.1791" y2="528.2404" gradientTransform="matrix(1 0 0 -1 -4.093293e-05 616)">
			<stop  offset="0" style="stop-color:#8DC7FF"/>
			<stop  offset="0.32" style="stop-color:#5C4D86"/>
		</linearGradient>
		<path style="fill:url(#SVGID_00000129890245328615944070000013642260614539698330_);" d="M604.8,88.6c0.2-0.4,0.1-1-0.4-1.2
			c-0.4-0.2-1-0.1-1.2,0.4c-0.2,0.4-0.1,1,0.4,1.2C604,89.2,604.5,89.1,604.8,88.6z"/>
		<path class="st40" d="M604.3,87.6c0.2,0.1,0.3,0.2,0.3,0.4s0,0.4-0.1,0.6c-0.1,0.2-0.2,0.3-0.4,0.4c-0.2,0.1-0.4,0-0.6-0.1
			c-0.2-0.1-0.3-0.2-0.3-0.4c-0.1-0.2,0-0.4,0.1-0.6c0.1-0.2,0.2-0.3,0.4-0.4C604,87.4,604.2,87.5,604.3,87.6z"/>
		
			<radialGradient id="SVGID_00000169549889361591515020000017142127009954818456_" cx="-646.3531" cy="727.214" r="1" gradientTransform="matrix(0.6753 -5.3414 -5.275 -0.6669 4876.6836 -2879.4277)" gradientUnits="userSpaceOnUse">
			<stop  offset="0" style="stop-color:#003CEE"/>
			<stop  offset="6.000000e-02" style="stop-color:#0036D6"/>
			<stop  offset="0.2" style="stop-color:#00289E"/>
			<stop  offset="0.34" style="stop-color:#001C6D"/>
			<stop  offset="0.48" style="stop-color:#001246"/>
			<stop  offset="0.62" style="stop-color:#000A27"/>
			<stop  offset="0.75" style="stop-color:#000412"/>
			<stop  offset="0.88" style="stop-color:#000104"/>
			<stop  offset="1" style="stop-color:#000000"/>
		</radialGradient>
		<path style="fill:url(#SVGID_00000169549889361591515020000017142127009954818456_);" d="M604.8,82.6c0.7,0.1,1.4,0.3,2,0.7
			c0.6,0.3,1.1,0.8,1.6,1.4c0.4,0.6,0.7,1.2,0.9,1.9c0.2,0.7,0.2,1.4,0.1,2.1c-0.2,1.4-0.9,2.7-2,3.6c-1.1,0.9-2.5,1.3-3.9,1.1
			c-0.7-0.1-1.4-0.3-2-0.7c-0.6-0.3-1.1-0.8-1.6-1.4c-0.4-0.6-0.7-1.2-0.9-1.9c-0.2-0.7-0.2-1.4-0.1-2.1c0.2-1.4,0.9-2.7,2-3.6
			C602,82.9,603.4,82.4,604.8,82.6z"/>
		
			<radialGradient id="SVGID_00000054987040374167306950000013912392967481413031_" cx="-653.5364" cy="696.611" r="1" gradientTransform="matrix(0.5388 -4.2617 -4.2087 -0.5321 3856.7517 -2368.1194)" gradientUnits="userSpaceOnUse">
			<stop  offset="0" style="stop-color:#FF9A00"/>
			<stop  offset="9.000000e-02" style="stop-color:#D68100"/>
			<stop  offset="0.23" style="stop-color:#9E5F00"/>
			<stop  offset="0.36" style="stop-color:#6E4200"/>
			<stop  offset="0.5" style="stop-color:#462A00"/>
			<stop  offset="0.63" style="stop-color:#271800"/>
			<stop  offset="0.76" style="stop-color:#120B00"/>
			<stop  offset="0.89" style="stop-color:#040300"/>
			<stop  offset="1" style="stop-color:#000000"/>
		</radialGradient>
		<path style="fill:url(#SVGID_00000054987040374167306950000013912392967481413031_);" d="M573.4,42.2c0.6,0.1,1.1,0.2,1.6,0.5
			c0.5,0.3,0.9,0.6,1.3,1.1c0.3,0.4,0.6,0.9,0.7,1.5c0.1,0.5,0.2,1.1,0.1,1.7c-0.1,1.1-0.7,2.1-1.6,2.8c-0.9,0.7-2,1-3.1,0.9
			c-0.6-0.1-1.1-0.2-1.6-0.5c-0.5-0.3-0.9-0.6-1.3-1.1c-0.3-0.4-0.6-0.9-0.7-1.5c-0.1-0.5-0.2-1.1-0.1-1.7c0.1-1.1,0.7-2.1,1.6-2.8
			C571.1,42.4,572.3,42,573.4,42.2z"/>
		
			<radialGradient id="SVGID_00000114757922580334861930000017523224517572721281_" cx="-653.5364" cy="696.611" r="1" gradientTransform="matrix(0.5388 -4.2617 -4.2087 -0.5321 3820.6328 -2361.5735)" gradientUnits="userSpaceOnUse">
			<stop  offset="0" style="stop-color:#FF9A00"/>
			<stop  offset="9.000000e-02" style="stop-color:#D68100"/>
			<stop  offset="0.23" style="stop-color:#9E5F00"/>
			<stop  offset="0.36" style="stop-color:#6E4200"/>
			<stop  offset="0.5" style="stop-color:#462A00"/>
			<stop  offset="0.63" style="stop-color:#271800"/>
			<stop  offset="0.76" style="stop-color:#120B00"/>
			<stop  offset="0.89" style="stop-color:#040300"/>
			<stop  offset="1" style="stop-color:#000000"/>
		</radialGradient>
		<path style="fill:url(#SVGID_00000114757922580334861930000017523224517572721281_);" d="M537.2,48.7c0.6,0.1,1.1,0.2,1.6,0.5
			c0.5,0.3,0.9,0.6,1.3,1.1c0.3,0.4,0.6,0.9,0.7,1.5c0.1,0.5,0.2,1.1,0.1,1.7c-0.1,1.1-0.7,2.1-1.6,2.8c-0.9,0.7-2,1-3.2,0.9
			c-0.6-0.1-1.1-0.2-1.6-0.5c-0.5-0.3-0.9-0.6-1.3-1.1c-0.3-0.4-0.6-0.9-0.7-1.5c-0.1-0.5-0.2-1.1-0.1-1.7c0.1-1.1,0.7-2.1,1.6-2.8
			C535,48.9,536.1,48.6,537.2,48.7z"/>
		
			<radialGradient id="SVGID_00000023974582681797778380000018171545455905679770_" cx="-686.7612" cy="555.0743" r="1" gradientTransform="matrix(0.2785 -2.2025 -2.1751 -0.275 1949.842 -1273.8923)" gradientUnits="userSpaceOnUse">
			<stop  offset="0" style="stop-color:#FF9A00"/>
			<stop  offset="9.000000e-02" style="stop-color:#D68100"/>
			<stop  offset="0.23" style="stop-color:#9E5F00"/>
			<stop  offset="0.36" style="stop-color:#6E4200"/>
			<stop  offset="0.5" style="stop-color:#462A00"/>
			<stop  offset="0.63" style="stop-color:#271800"/>
			<stop  offset="0.76" style="stop-color:#120B00"/>
			<stop  offset="0.89" style="stop-color:#040300"/>
			<stop  offset="1" style="stop-color:#000000"/>
		</radialGradient>
		<path style="fill:url(#SVGID_00000023974582681797778380000018171545455905679770_);" d="M551.5,83.8c0.3,0,0.6,0.1,0.8,0.3
			c0.2,0.1,0.5,0.3,0.6,0.6c0.2,0.2,0.3,0.5,0.4,0.8c0.1,0.3,0.1,0.6,0.1,0.9c-0.1,0.6-0.4,1.1-0.8,1.5c-0.5,0.4-1,0.5-1.6,0.5
			c-0.3,0-0.6-0.1-0.8-0.3c-0.3-0.1-0.5-0.3-0.6-0.6c-0.2-0.2-0.3-0.5-0.4-0.8c-0.1-0.3-0.1-0.6-0.1-0.9c0.1-0.6,0.4-1.1,0.8-1.5
			C550.3,83.9,550.9,83.7,551.5,83.8z"/>
		
			<radialGradient id="SVGID_00000033352530889106978140000017751633435995235226_" cx="-691.5474" cy="534.6857" r="1" gradientTransform="matrix(0.2603 -2.0592 -2.0336 -0.2571 1877.2467 -1208.9869)" gradientUnits="userSpaceOnUse">
			<stop  offset="0" style="stop-color:#003CEE"/>
			<stop  offset="6.000000e-02" style="stop-color:#0036D6"/>
			<stop  offset="0.2" style="stop-color:#00289E"/>
			<stop  offset="0.34" style="stop-color:#001C6D"/>
			<stop  offset="0.48" style="stop-color:#001246"/>
			<stop  offset="0.62" style="stop-color:#000A27"/>
			<stop  offset="0.75" style="stop-color:#000412"/>
			<stop  offset="0.88" style="stop-color:#000104"/>
			<stop  offset="1" style="stop-color:#000000"/>
		</radialGradient>
		<path style="fill:url(#SVGID_00000033352530889106978140000017751633435995235226_);" d="M610.2,75.4c0.3,0,0.5,0.1,0.8,0.3
			c0.2,0.1,0.4,0.3,0.6,0.5c0.2,0.2,0.3,0.5,0.4,0.7c0.1,0.3,0.1,0.5,0.1,0.8c-0.1,0.5-0.3,1-0.8,1.4c-0.4,0.3-1,0.5-1.5,0.4
			c-0.3,0-0.5-0.1-0.8-0.3c-0.2-0.1-0.4-0.3-0.6-0.5c-0.2-0.2-0.3-0.5-0.4-0.7c-0.1-0.3-0.1-0.5-0.1-0.8c0.1-0.5,0.3-1,0.8-1.4
			C609.1,75.5,609.6,75.4,610.2,75.4z"/>
		
			<radialGradient id="SVGID_00000139984524011010494990000018223656561843693706_" cx="-691.5474" cy="534.6842" r="1" gradientTransform="matrix(0.2603 -2.0592 -2.0336 -0.2571 1866.3584 -1184.5798)" gradientUnits="userSpaceOnUse">
			<stop  offset="0" style="stop-color:#003CEE"/>
			<stop  offset="6.000000e-02" style="stop-color:#0036D6"/>
			<stop  offset="0.2" style="stop-color:#00289E"/>
			<stop  offset="0.34" style="stop-color:#001C6D"/>
			<stop  offset="0.48" style="stop-color:#001246"/>
			<stop  offset="0.62" style="stop-color:#000A27"/>
			<stop  offset="0.75" style="stop-color:#000412"/>
			<stop  offset="0.88" style="stop-color:#000104"/>
			<stop  offset="1" style="stop-color:#000000"/>
		</radialGradient>
		<path style="fill:url(#SVGID_00000139984524011010494990000018223656561843693706_);" d="M599.2,99.8c0.3,0,0.5,0.1,0.8,0.3
			c0.2,0.1,0.4,0.3,0.6,0.5c0.2,0.2,0.3,0.5,0.4,0.7c0.1,0.3,0.1,0.5,0,0.8c-0.1,0.5-0.3,1-0.8,1.4s-1,0.5-1.5,0.4
			c-0.3,0-0.5-0.1-0.8-0.3c-0.2-0.1-0.4-0.3-0.6-0.5c-0.2-0.2-0.3-0.5-0.4-0.7c-0.1-0.3-0.1-0.5-0.1-0.8c0.1-0.5,0.3-1,0.8-1.4
			C598.1,99.9,598.7,99.7,599.2,99.8z"/>
	</g>
</g>
<g>
	<defs>
		<ellipse id="SVGID_00000004505928425876536240000010640706059154667937_" cx="343" cy="309.6" rx="292.2" ry="281.8"/>
	</defs>
	<clipPath id="SVGID_00000138538204715800979800000013328540042725919149_">
		<use xlink:href="#SVGID_00000004505928425876536240000010640706059154667937_"  style="overflow:visible;"/>
	</clipPath>
	<g transform="matrix(1 0 0 1 0 0)" style="clip-path:url(#SVGID_00000138538204715800979800000013328540042725919149_);">
		
			<image style="overflow:visible;" width="1024" height="1024" xlink:href="Firefly colorful whirlwind inside a 3d glass sphere 76614.jpg"  transform="matrix(0.6748 0 0 0.6748 -4.5 -18.5)">
		</image>
	</g>
</g>
</svg>
